<svg width="112" height="33" viewBox="0 0 112 33" fill="none" xmlns="http://www.w3.org/2000/svg">
<path d="M18.9789 13.9331L15.232 26H12.2996C12.1445 26 12.0126 25.9535 11.904 25.8604C11.7954 25.7673 11.7101 25.6121 11.648 25.3949L9.92582 19.3789C9.84049 19.1074 9.76291 18.8398 9.69309 18.576C9.63103 18.3122 9.57285 18.0446 9.51855 17.7731C9.46424 18.0446 9.40218 18.3161 9.33236 18.5876C9.2703 18.8592 9.19661 19.1307 9.11127 19.4022L7.36582 25.3949C7.24945 25.7983 6.99345 26 6.59782 26H3.80509L0.0581818 13.9331H2.944C3.2 13.9331 3.41333 13.9952 3.584 14.1193C3.76242 14.2356 3.88267 14.383 3.94473 14.5615L5.15491 19.9724C5.25576 20.3835 5.34497 20.783 5.42255 21.1709C5.50012 21.551 5.56994 21.935 5.632 22.3229C5.73285 21.935 5.83758 21.551 5.94618 21.1709C6.06255 20.783 6.18667 20.3835 6.31855 19.9724L7.83127 14.5498C7.89333 14.3714 8.0097 14.224 8.18036 14.1076C8.35103 13.9835 8.55273 13.9215 8.78545 13.9215H10.3913C10.6473 13.9215 10.8606 13.9835 11.0313 14.1076C11.2097 14.224 11.3299 14.3714 11.392 14.5498L12.8349 19.9724C12.9513 20.3835 13.0638 20.783 13.1724 21.1709C13.2887 21.5588 13.3935 21.9505 13.4865 22.3462C13.5486 21.9583 13.6223 21.5704 13.7076 21.1825C13.793 20.7947 13.8899 20.3913 13.9985 19.9724L15.2785 14.5615C15.3406 14.383 15.457 14.2356 15.6276 14.1193C15.7983 13.9952 16 13.9331 16.2327 13.9331H18.9789ZM27.5455 18.5178C27.5455 18.2308 27.5067 17.9515 27.4291 17.68C27.3593 17.4085 27.239 17.168 27.0684 16.9585C26.9055 16.7413 26.6882 16.5668 26.4167 16.4349C26.1452 16.303 25.8155 16.2371 25.4276 16.2371C24.745 16.2371 24.2097 16.4349 23.8218 16.8305C23.4339 17.2184 23.1779 17.7808 23.0538 18.5178H27.5455ZM23.0073 20.6124C23.1236 21.6208 23.4301 22.3539 23.9265 22.8116C24.423 23.2616 25.063 23.4865 25.8465 23.4865C26.2655 23.4865 26.6262 23.4361 26.9287 23.3353C27.2313 23.2344 27.4989 23.1219 27.7316 22.9978C27.9721 22.8737 28.1893 22.7612 28.3833 22.6604C28.585 22.5595 28.7944 22.5091 29.0116 22.5091C29.2987 22.5091 29.5159 22.6138 29.6633 22.8233L30.7105 24.1149C30.3382 24.5416 29.9348 24.8907 29.5004 25.1622C29.0737 25.4259 28.6315 25.6354 28.1738 25.7905C27.7239 25.9379 27.2701 26.0388 26.8124 26.0931C26.3624 26.1552 25.9319 26.1862 25.5207 26.1862C24.6751 26.1862 23.88 26.0504 23.1353 25.7789C22.3983 25.4996 21.7505 25.0885 21.192 24.5455C20.6412 24.0024 20.2029 23.3275 19.8771 22.5207C19.559 21.7139 19.4 20.7753 19.4 19.7047C19.4 18.8979 19.5358 18.1338 19.8073 17.4124C20.0865 16.6909 20.4822 16.0587 20.9942 15.5156C21.5139 14.9726 22.1384 14.5421 22.8676 14.224C23.6046 13.9059 24.4347 13.7469 25.3578 13.7469C26.1568 13.7469 26.8861 13.871 27.5455 14.1193C28.2126 14.3675 28.7828 14.7282 29.256 15.2015C29.737 15.6747 30.1093 16.2565 30.3731 16.9469C30.6446 17.6296 30.7804 18.4053 30.7804 19.2742C30.7804 19.5457 30.7687 19.7668 30.7455 19.9375C30.7222 20.1081 30.6795 20.2439 30.6175 20.3447C30.5554 20.4456 30.4701 20.5154 30.3615 20.5542C30.2606 20.593 30.1287 20.6124 29.9658 20.6124H23.0073Z" fill="#DDDDDD"/>
<path d="M40.8902 16.5745C40.7971 16.7219 40.6962 16.8267 40.5876 16.8887C40.4868 16.9508 40.3549 16.9818 40.192 16.9818C40.0213 16.9818 39.8507 16.9469 39.68 16.8771C39.5093 16.7995 39.3232 16.7181 39.1215 16.6327C38.9275 16.5474 38.7064 16.4698 38.4582 16.4C38.2099 16.3224 37.9268 16.2836 37.6087 16.2836C37.151 16.2836 36.7981 16.3728 36.5498 16.5513C36.3093 16.7219 36.1891 16.9624 36.1891 17.2727C36.1891 17.4977 36.2667 17.6839 36.4218 17.8313C36.5847 17.9787 36.7981 18.1105 37.0618 18.2269C37.3256 18.3355 37.6242 18.4402 37.9578 18.5411C38.2914 18.6419 38.6327 18.7544 38.9818 18.8785C39.3309 19.0027 39.6722 19.1501 40.0058 19.3207C40.3394 19.4836 40.6381 19.6892 40.9018 19.9375C41.1656 20.1779 41.375 20.4727 41.5302 20.8218C41.6931 21.1709 41.7745 21.5898 41.7745 22.0785C41.7745 22.6759 41.6659 23.2267 41.4487 23.7309C41.2315 24.2352 40.9057 24.6696 40.4713 25.0342C40.0446 25.3988 39.5132 25.6819 38.8771 25.8836C38.2487 26.0853 37.5234 26.1862 36.7011 26.1862C36.2899 26.1862 35.8788 26.1474 35.4676 26.0698C35.0565 25.9922 34.657 25.8875 34.2691 25.7556C33.889 25.6238 33.536 25.4686 33.2102 25.2902C32.8844 25.104 32.6051 24.9062 32.3724 24.6967L33.2102 23.3702C33.3033 23.215 33.4196 23.0948 33.5593 23.0095C33.7067 22.9164 33.8928 22.8698 34.1178 22.8698C34.3273 22.8698 34.5135 22.9164 34.6764 23.0095C34.847 23.1025 35.0293 23.2034 35.2233 23.312C35.4172 23.4206 35.6422 23.5215 35.8982 23.6145C36.1619 23.7076 36.4916 23.7542 36.8873 23.7542C37.1665 23.7542 37.4032 23.727 37.5971 23.6727C37.791 23.6107 37.9462 23.5292 38.0625 23.4284C38.1789 23.3275 38.2642 23.215 38.3185 23.0909C38.3728 22.9668 38.4 22.8388 38.4 22.7069C38.4 22.4664 38.3185 22.2686 38.1556 22.1135C37.9927 21.9583 37.7794 21.8264 37.5156 21.7178C37.2519 21.6015 36.9493 21.4967 36.608 21.4036C36.2744 21.3028 35.9331 21.1903 35.584 21.0662C35.2349 20.9421 34.8897 20.7947 34.5484 20.624C34.2148 20.4456 33.9161 20.2245 33.6524 19.9607C33.3886 19.6892 33.1753 19.3595 33.0124 18.9716C32.8495 18.5838 32.768 18.1144 32.768 17.5636C32.768 17.0516 32.865 16.5668 33.0589 16.1091C33.2606 15.6436 33.5593 15.2364 33.9549 14.8873C34.3505 14.5382 34.847 14.2628 35.4444 14.0611C36.0417 13.8516 36.7399 13.7469 37.5389 13.7469C37.9733 13.7469 38.3922 13.7857 38.7956 13.8633C39.2068 13.9408 39.5908 14.0495 39.9476 14.1891C40.3045 14.3287 40.6303 14.4955 40.9251 14.6895C41.2199 14.8756 41.4798 15.0812 41.7047 15.3062L40.8902 16.5745ZM47.9025 26.1862C47.3285 26.1862 46.8204 26.1047 46.3782 25.9418C45.9438 25.7712 45.5753 25.5345 45.2727 25.232C44.9779 24.9217 44.753 24.5493 44.5978 24.1149C44.4427 23.6805 44.3651 23.1956 44.3651 22.6604V16.4233H43.3411C43.1549 16.4233 42.9959 16.3651 42.864 16.2487C42.7321 16.1246 42.6662 15.9462 42.6662 15.7135V14.3055L44.5862 13.9331L45.296 10.9891C45.3891 10.6167 45.6528 10.4305 46.0873 10.4305H47.9724V13.9564H50.9629V16.4233H47.9724V22.416C47.9724 22.6953 48.0383 22.928 48.1702 23.1142C48.3098 23.2926 48.5076 23.3818 48.7636 23.3818C48.8955 23.3818 49.0041 23.3702 49.0895 23.3469C49.1825 23.3159 49.2601 23.2848 49.3222 23.2538C49.392 23.215 49.4541 23.184 49.5084 23.1607C49.5704 23.1297 49.6402 23.1142 49.7178 23.1142C49.8264 23.1142 49.9118 23.1413 49.9738 23.1956C50.0436 23.2422 50.1135 23.3198 50.1833 23.4284L51.2771 25.1389C50.8116 25.488 50.288 25.7518 49.7062 25.9302C49.1244 26.1008 48.5232 26.1862 47.9025 26.1862ZM58.7427 21.0895C58.0213 21.1205 57.4278 21.1825 56.9624 21.2756C56.4969 21.3687 56.1284 21.4851 55.8569 21.6247C55.5854 21.7644 55.3953 21.9234 55.2867 22.1018C55.1859 22.2802 55.1355 22.4742 55.1355 22.6836C55.1355 23.0948 55.2479 23.3857 55.4729 23.5564C55.6979 23.7193 56.0276 23.8007 56.462 23.8007C56.9275 23.8007 57.3347 23.7193 57.6838 23.5564C58.0329 23.3935 58.3859 23.1297 58.7427 22.7651V21.0895ZM52.2496 15.6087C52.9788 14.9648 53.7856 14.4878 54.67 14.1775C55.5621 13.8594 56.5163 13.7004 57.5325 13.7004C58.2618 13.7004 58.9173 13.8206 59.4991 14.0611C60.0887 14.2938 60.5852 14.6235 60.9885 15.0502C61.3997 15.4691 61.7139 15.9695 61.9311 16.5513C62.1483 17.1331 62.2569 17.7692 62.2569 18.4596V26H60.6045C60.2632 26 60.0033 25.9535 59.8249 25.8604C59.6542 25.7673 59.5107 25.5733 59.3944 25.2785L59.1384 24.6153C58.8358 24.8713 58.5449 25.0962 58.2656 25.2902C57.9864 25.4841 57.6955 25.6509 57.3929 25.7905C57.0981 25.9224 56.7801 26.0194 56.4387 26.0815C56.1052 26.1513 55.7328 26.1862 55.3216 26.1862C54.7708 26.1862 54.2705 26.1164 53.8205 25.9767C53.3706 25.8293 52.9866 25.616 52.6685 25.3367C52.3582 25.0575 52.1178 24.7122 51.9471 24.3011C51.7764 23.8822 51.6911 23.4012 51.6911 22.8582C51.6911 22.4238 51.7997 21.9855 52.0169 21.5433C52.2341 21.0933 52.6104 20.6861 53.1456 20.3215C53.6809 19.9491 54.4024 19.6388 55.31 19.3905C56.2176 19.1423 57.3619 19.0027 58.7427 18.9716V18.4596C58.7427 17.7537 58.5953 17.2456 58.3005 16.9353C58.0135 16.6172 57.6024 16.4582 57.0671 16.4582C56.6404 16.4582 56.2913 16.5047 56.0198 16.5978C55.7483 16.6909 55.5039 16.7956 55.2867 16.912C55.0773 17.0284 54.8717 17.1331 54.67 17.2262C54.4683 17.3193 54.2278 17.3658 53.9485 17.3658C53.7003 17.3658 53.4908 17.3038 53.3202 17.1796C53.1495 17.0555 53.0099 16.9081 52.9013 16.7375L52.2496 15.6087ZM73.4296 16.7956C73.321 16.9275 73.2163 17.0322 73.1155 17.1098C73.0146 17.1874 72.8711 17.2262 72.6849 17.2262C72.5065 17.2262 72.3436 17.1835 72.1962 17.0982C72.0565 17.0128 71.8975 16.9198 71.7191 16.8189C71.5407 16.7103 71.3312 16.6133 71.0907 16.528C70.8502 16.4427 70.5516 16.4 70.1947 16.4C69.7525 16.4 69.3685 16.4815 69.0427 16.6444C68.7247 16.8073 68.4609 17.04 68.2515 17.3425C68.042 17.6451 67.8868 18.0175 67.786 18.4596C67.6852 18.8941 67.6347 19.3867 67.6347 19.9375C67.6347 21.0933 67.8558 21.9816 68.298 22.6022C68.7479 23.2228 69.3647 23.5331 70.1482 23.5331C70.5671 23.5331 70.8968 23.4827 71.1373 23.3818C71.3855 23.2732 71.595 23.1568 71.7656 23.0327C71.9363 22.9008 72.0915 22.7806 72.2311 22.672C72.3785 22.5634 72.5608 22.5091 72.778 22.5091C73.065 22.5091 73.2822 22.6138 73.4296 22.8233L74.4769 24.1149C74.1045 24.5416 73.7128 24.8907 73.3016 25.1622C72.8905 25.4259 72.4677 25.6354 72.0333 25.7905C71.6066 25.9379 71.1761 26.0388 70.7416 26.0931C70.3072 26.1552 69.8844 26.1862 69.4733 26.1862C68.7363 26.1862 68.0304 26.0465 67.3555 25.7673C66.6883 25.488 66.0987 25.0846 65.5867 24.5571C65.0825 24.0218 64.6791 23.3663 64.3765 22.5905C64.0818 21.8148 63.9344 20.9304 63.9344 19.9375C63.9344 19.0686 64.0624 18.2579 64.3184 17.5055C64.5821 16.7452 64.9661 16.0897 65.4704 15.5389C65.9824 14.9804 66.6107 14.5421 67.3555 14.224C68.1079 13.9059 68.9768 13.7469 69.962 13.7469C70.9084 13.7469 71.7385 13.8982 72.4522 14.2007C73.1659 14.5033 73.8098 14.9455 74.3838 15.5273L73.4296 16.7956ZM79.4882 8.58036V18.3433H80.0235C80.2484 18.3433 80.4191 18.3122 80.5355 18.2502C80.6518 18.1804 80.7682 18.0679 80.8845 17.9127L83.1653 14.5149C83.3049 14.321 83.4639 14.1775 83.6424 14.0844C83.8208 13.9835 84.0496 13.9331 84.3289 13.9331H87.6336L84.5151 18.2269C84.2203 18.6148 83.8712 18.9328 83.4678 19.1811C83.6462 19.313 83.8091 19.4681 83.9565 19.6465C84.1039 19.8172 84.2436 20.0112 84.3755 20.2284L87.7733 26H84.5151C84.2436 26 84.0108 25.9573 83.8169 25.872C83.623 25.7789 83.4601 25.6199 83.3282 25.3949L81.0475 21.1244C80.9388 20.9304 80.8264 20.8063 80.71 20.752C80.5936 20.6899 80.4191 20.6589 80.1864 20.6589H79.4882V26H75.8809V8.58036H79.4882ZM88.3922 24.1731C88.3922 23.8938 88.4426 23.6339 88.5435 23.3935C88.6521 23.153 88.7956 22.9435 88.974 22.7651C89.1602 22.5867 89.3774 22.447 89.6256 22.3462C89.8739 22.2376 90.1454 22.1833 90.4402 22.1833C90.7272 22.1833 90.9948 22.2376 91.2431 22.3462C91.4913 22.447 91.7085 22.5867 91.8947 22.7651C92.0809 22.9435 92.2244 23.153 92.3253 23.3935C92.4339 23.6339 92.4882 23.8938 92.4882 24.1731C92.4882 24.4524 92.4339 24.7161 92.3253 24.9644C92.2244 25.2048 92.0809 25.4143 91.8947 25.5927C91.7085 25.7712 91.4913 25.9108 91.2431 26.0116C90.9948 26.1125 90.7272 26.1629 90.4402 26.1629C90.1454 26.1629 89.8739 26.1125 89.6256 26.0116C89.3774 25.9108 89.1602 25.7712 88.974 25.5927C88.7956 25.4143 88.6521 25.2048 88.5435 24.9644C88.4426 24.7161 88.3922 24.4524 88.3922 24.1731ZM100.675 21.0895C99.9531 21.1205 99.3596 21.1825 98.8942 21.2756C98.4287 21.3687 98.0602 21.4851 97.7887 21.6247C97.5172 21.7644 97.3271 21.9234 97.2185 22.1018C97.1177 22.2802 97.0673 22.4742 97.0673 22.6836C97.0673 23.0948 97.1798 23.3857 97.4047 23.5564C97.6297 23.7193 97.9594 23.8007 98.3938 23.8007C98.8593 23.8007 99.2665 23.7193 99.6156 23.5564C99.9647 23.3935 100.318 23.1297 100.675 22.7651V21.0895ZM94.1815 15.6087C94.9107 14.9648 95.7175 14.4878 96.6018 14.1775C97.4939 13.8594 98.4481 13.7004 99.4644 13.7004C100.194 13.7004 100.849 13.8206 101.431 14.0611C102.02 14.2938 102.517 14.6235 102.92 15.0502C103.332 15.4691 103.646 15.9695 103.863 16.5513C104.08 17.1331 104.189 17.7692 104.189 18.4596V26H102.536C102.195 26 101.935 25.9535 101.757 25.8604C101.586 25.7673 101.443 25.5733 101.326 25.2785L101.07 24.6153C100.768 24.8713 100.477 25.0962 100.197 25.2902C99.9182 25.4841 99.6273 25.6509 99.3247 25.7905C99.0299 25.9224 98.7119 26.0194 98.3705 26.0815C98.037 26.1513 97.6646 26.1862 97.2535 26.1862C96.7027 26.1862 96.2023 26.1164 95.7524 25.9767C95.3024 25.8293 94.9184 25.616 94.6004 25.3367C94.2901 25.0575 94.0496 24.7122 93.8789 24.3011C93.7082 23.8822 93.6229 23.4012 93.6229 22.8582C93.6229 22.4238 93.7315 21.9855 93.9487 21.5433C94.1659 21.0933 94.5422 20.6861 95.0775 20.3215C95.6127 19.9491 96.3342 19.6388 97.2418 19.3905C98.1494 19.1423 99.2937 19.0027 100.675 18.9716V18.4596C100.675 17.7537 100.527 17.2456 100.232 16.9353C99.9453 16.6172 99.5342 16.4582 98.9989 16.4582C98.5722 16.4582 98.2231 16.5047 97.9516 16.5978C97.6801 16.6909 97.4358 16.7956 97.2185 16.912C97.0091 17.0284 96.8035 17.1331 96.6018 17.2262C96.4001 17.3193 96.1596 17.3658 95.8804 17.3658C95.6321 17.3658 95.4227 17.3038 95.252 17.1796C95.0813 17.0555 94.9417 16.9081 94.8331 16.7375L94.1815 15.6087ZM110.183 13.9331V26H106.576V13.9331H110.183ZM110.556 10.6284C110.556 10.9154 110.497 11.1869 110.381 11.4429C110.265 11.6912 110.106 11.9122 109.904 12.1062C109.702 12.2924 109.466 12.4436 109.194 12.56C108.93 12.6686 108.647 12.7229 108.345 12.7229C108.05 12.7229 107.775 12.6686 107.519 12.56C107.263 12.4436 107.034 12.2924 106.832 12.1062C106.638 11.9122 106.483 11.6912 106.367 11.4429C106.258 11.1869 106.204 10.9154 106.204 10.6284C106.204 10.3336 106.258 10.0582 106.367 9.80218C106.483 9.54618 106.638 9.32121 106.832 9.12727C107.034 8.93333 107.263 8.78206 107.519 8.67345C107.775 8.56485 108.05 8.51055 108.345 8.51055C108.647 8.51055 108.93 8.56485 109.194 8.67345C109.466 8.78206 109.702 8.93333 109.904 9.12727C110.106 9.32121 110.265 9.54618 110.381 9.80218C110.497 10.0582 110.556 10.3336 110.556 10.6284Z" fill="white"/>
</svg>
